<svg height="22" viewBox="0 0 30 22" width="30" xmlns="http://www.w3.org/2000/svg"
     xmlns:xlink="http://www.w3.org/1999/xlink">
    <filter id="a">
        <feColorMatrix in="SourceGraphic" type="matrix"
                       values="0 0 0 0 0.000000 0 0 0 0 0.000000 0 0 0 0 0.000000 0 0 0 1.000000 0"/>
    </filter>
    <mask id="b" fill="#fff">
        <path d="m0 0h30v21.6666667h-30z" fill="#fff" fill-rule="evenodd"/>
    </mask>
    <g fill="none" fill-rule="evenodd" filter="url(#a)" transform="translate(-122 -54)">
        <path d="m20.2026417.32568807c-.4096498-.43425076-1.08843-.43425076-1.5123699 0-.4084589.42079511-.4084589 1.11804282 0 1.53883792l7.6666435 7.87400612h-25.2958747c-.59065784 0-1.0610406.48318039-1.0610406 1.08990829 0 .6018348.47038276 1.1033639 1.0610406 1.1033639h25.2958747l-7.6666435 7.8556575c-.4084589.435474-.4084589 1.1376147 0 1.5535168.4239399.4342508 1.1027201.4342508 1.5123699 0l9.4802965-9.7382263c.4227491-.4207951.4227491-1.1180428 0-1.533945z"
              fill="#1e201d" mask="url(#b)" transform="matrix(-1 0 0 -1 152 75.666666)"/>
    </g>
</svg>